<svg width="220" height="54" viewBox="0 0 220 54" fill="none" xmlns="http://www.w3.org/2000/svg">
<rect width="220" height="54" fill="white"/>
<path d="M43.8411 17.7227L58.3131 30.8369C60.8607 33.1454 60.9514 37.1182 58.5118 39.5406L53.6083 44.4095C51.2717 46.7297 47.5016 46.7331 45.1608 44.4171L44.7534 44.0141M37.1507 10.6912L36.1097 9.72376C33.751 7.53162 30.0824 7.59224 27.7975 9.86113L22.9572 14.6673C20.5672 17.0404 20.5983 20.9154 23.026 23.2498L37.1507 36.8321" stroke="url(#paint0_linear_4484_97)" stroke-width="4.8"/>
<g style="mix-blend-mode:plus-darker">
<path d="M23.49 31.942L45.6606 8.99894C47.9948 6.5834 51.8572 6.55459 54.2272 8.93504L59.2048 13.9347C61.528 16.2681 61.5366 20.0378 59.2241 22.3818L36.8201 45.0905C34.4781 47.4643 30.6497 47.4731 28.2969 45.1099L23.5527 40.3447C21.2466 38.0284 21.2187 34.2924 23.49 31.942Z" stroke="url(#paint1_linear_4484_97)" stroke-width="4.8"/>
</g>
<path d="M85.831 15.366V35.347H80.35V37.435H78.32V15.366H85.831ZM80.35 33.462H83.83V26.096H80.35V33.462ZM80.35 24.182H83.83V17.251H80.35V24.182ZM98.446 39.639C96.9187 39.639 96.155 38.8463 96.155 37.261V30.069H93.342V30.446C93.284 32.998 92.7137 35.0667 91.631 36.652C90.587 38.0827 88.8663 39.204 86.469 40.016L85.367 38.247C87.6097 37.5123 89.1757 36.5457 90.065 35.347C90.8963 34.1097 91.341 32.476 91.399 30.446V30.069H87.165V28.039H102.883V30.069H98.156V36.855C98.156 37.4543 98.446 37.754 99.026 37.754H100.157C100.64 37.754 100.969 37.609 101.143 37.319C101.414 36.913 101.588 35.782 101.665 33.926L103.492 34.506C103.318 36.9227 102.999 38.4113 102.535 38.972C102.09 39.4167 101.423 39.639 100.534 39.639H98.446ZM102.158 15.424L102.448 17.251L94.299 18.034C94.531 18.9233 94.8113 19.7063 95.14 20.383C95.2947 20.731 95.4977 21.0983 95.749 21.485C97.199 20.615 98.446 19.629 99.49 18.527L100.998 19.658C99.8767 20.8953 98.5137 22.0167 96.909 23.022C97.025 23.1767 97.2183 23.37 97.489 23.602C98.3977 24.298 99.171 24.646 99.809 24.646C100.486 24.588 101.143 23.573 101.781 21.601L103.318 22.616C102.351 25.2647 101.24 26.589 99.983 26.589C98.9777 26.589 97.895 26.1733 96.735 25.342C96.213 24.9553 95.7103 24.4913 95.227 23.95C93.2743 24.936 90.993 25.7577 88.383 26.415L87.571 24.617C89.9877 24.037 92.153 23.2927 94.067 22.384L93.603 21.601C93.139 20.731 92.704 19.6 92.298 18.208L87.397 18.672L87.107 16.816L91.834 16.381C91.5633 15.279 91.3507 14.2543 91.196 13.307L93.255 13.075C93.4677 14.4283 93.661 15.4723 93.835 16.207L102.158 15.424ZM107.523 14.496H116.89V16.12C115.943 18.8073 114.841 21.5527 113.584 24.356C115.479 26.85 116.513 29.1313 116.687 31.2C116.687 32.418 116.387 33.3267 115.788 33.926C114.937 34.6027 113.458 34.9603 111.351 34.999L110.684 32.911C111.264 32.9883 111.631 33.027 111.786 33.027C112.907 32.969 113.661 32.8047 114.048 32.534C114.415 32.2633 114.599 31.8187 114.599 31.2C114.599 29.2667 113.565 27.0917 111.496 24.675C112.907 21.5817 114 18.8363 114.773 16.439H109.553V39.987H107.523V14.496ZM131.593 14.931V39.813H129.563V37.551H120.602V39.755H118.572V14.931H131.593ZM120.602 35.55H129.563V27.14H120.602V35.55ZM120.602 25.168H129.563V16.961H120.602V25.168ZM147.108 14.989V32.737L148.993 32.128V34.129C145.126 35.5017 140.757 36.7293 135.885 37.812L135.305 35.811L137.306 35.376V14.989H147.108ZM139.423 34.883C141.55 34.361 143.415 33.8583 145.02 33.375V29.547H139.423V34.883ZM139.423 27.662H145.02V23.167H139.423V27.662ZM139.423 21.282H145.02V16.903H139.423V21.282ZM152.183 13.452H154.329V18.817H160.767C160.767 28.1163 160.622 33.868 160.332 36.072C160.003 38.4307 158.466 39.61 155.721 39.61C155.296 39.61 154.571 39.581 153.546 39.523L153.053 37.667C154.29 37.7443 155.083 37.783 155.431 37.783C157.094 37.783 158.06 36.9517 158.331 35.289C158.505 33.723 158.621 28.8897 158.679 20.789H154.329V21.05C154.252 29.692 152.212 36.0237 148.21 40.045L146.557 38.566C150.25 34.9313 152.125 29.0927 152.183 21.05V20.789H148.674V18.817H152.183V13.452ZM188.259 15.337C185.494 16.0717 182.44 16.6033 179.095 16.932V21.833H188.346V23.863H179.095V28.619H190.521V30.62H179.095V37.029C179.095 38.7883 178.186 39.668 176.369 39.668H171.874L171.41 37.638C173.382 37.7153 174.793 37.754 175.644 37.754C176.533 37.754 176.978 37.3383 176.978 36.507V30.62H164.508V28.619H176.978V23.863H166.915V21.833H176.978V17.106C173.653 17.3573 170.318 17.483 166.973 17.483L166.335 15.598C174.648 15.598 181.618 14.9213 187.244 13.568L188.259 15.337Z" fill="black"/>
<defs>
<linearGradient id="paint0_linear_4484_97" x1="40.8" y1="5.7998" x2="40.8" y2="48.5998" gradientUnits="userSpaceOnUse">
<stop stop-color="#FDCD1E"/>
<stop offset="1" stop-color="#D92506"/>
</linearGradient>
<linearGradient id="paint1_linear_4484_97" x1="19.4004" y1="27.0001" x2="63.4004" y2="27.0001" gradientUnits="userSpaceOnUse">
<stop stop-color="#7869B7"/>
<stop offset="1" stop-color="#3B91DA"/>
</linearGradient>
</defs>
</svg>
