<?xml version="1.0" standalone="no"?><!DOCTYPE svg PUBLIC "-//W3C//DTD SVG 1.1//EN" "http://www.w3.org/Graphics/SVG/1.1/DTD/svg11.dtd"><svg t="1759053289923" class="icon" viewBox="0 0 1024 1024" version="1.1" xmlns="http://www.w3.org/2000/svg" p-id="4976" width="16" height="16" xmlns:xlink="http://www.w3.org/1999/xlink"><path d="M448.826198 416.904727a53.375233 53.375233 0 0 1 33.727515 49.983281v503.67276c0 37.183465-36.287478 63.039094-70.270989 49.983282l-377.850569-145.277912a53.247235 53.247235 0 0 1-33.727515-49.919282v-503.67276c0-37.311464 36.287478-63.103093 70.334989-50.047281l377.786569 145.277912z m164.285639 603.639323c-33.919512 13.055812-70.334989-12.799816-70.334989-49.983282v-503.67276c0-22.207681 13.439807-42.239393 33.791514-49.983281l377.786569-145.277912c33.983511-12.991813 70.398988 12.735817 70.398988 49.919283v503.672759c0 22.335679-13.439807 42.175394-33.855513 49.919283L613.175836 1020.608049z m310.331539-876.595399c34.431505 13.18381 33.919512 63.231091-0.70399 75.83891L525.817092 363.401496a38.527446 38.527446 0 0 1-26.239623 0l-390.778383-141.437967c-35.263493-12.735817-34.8155-64.127078 0.70399-76.350902L529.593037 2.06269a38.335449 38.335449 0 0 1 26.303622 0.511993l367.546717 141.437967z" p-id="4977" fill="#1876a7"></path></svg>